
<svg xmlns="http://www.w3.org/2000/svg" width="1000" height="629.5" viewBox="0 0 1000 629.5">
    <style>
        text, tspan {
            white-space: pre;
            font-family: monospace;
        }
        .console { 
            font-size: 30px; 
            fill: #00FF00; 
            line-height: 1.2;
        }
        .cyan {
            fill: #00FFFF;
        }
        .white {
            fill: #FFFFFF;
        }
        .green {
            fill: #4CCC6C;
        }
        .red {
            fill: #FF5555;
        }
        .legend-item {
            display: flex;
            align-items: center;
            margin-bottom: 8px;
        }
    </style>
    <rect width="100%" height="100%" fill="black" rx="15"/>

    <!-- Stats Section -->
    <text x="50" y="50" class="console ascii-art">
        <tspan x="50" y="67">$ gufett0 github-stats</tspan>
        <tspan x="50" y="119.5"><tspan class="cyan">account-age:</tspan> <tspan class="white">1137 days</tspan></tspan>
        <tspan x="50" y="154.5"><tspan class="cyan">repos:</tspan> <tspan class="white">37</tspan></tspan>
        <tspan x="50" y="189.5"><tspan class="cyan">commits:</tspan> <tspan class="white">402</tspan></tspan>
        <tspan x="50" y="224.5"><tspan class="cyan">lines:</tspan> <tspan class="white">322686 (<tspan class="green">382001++</tspan>, <tspan class="red">59315--</tspan>)</tspan></tspan>
        <tspan x="50" y="259.5"><tspan class="cyan">languages:</tspan></tspan>

    </text>

    <!-- Pie Chart -->
    <g transform="translate(50, 279.5)">
        <svg width="300" height="300" viewBox="0 0 300 300" xmlns="http://www.w3.org/2000/svg">
  <!-- Pie Chart Wedges -->
  <path d="M 150 150 L 150 0 A 150 150 0 0 1 195.92983844152775 292.79513276276316 Z" fill="#3776AB" stroke="#333" stroke-width="0.5" />
  <path d="M 150 150 L 195.92983844152775 292.79513276276316 A 150 150 0 0 1 3.109895893743783 180.38580779991227 Z" fill="#3178C6" stroke="#333" stroke-width="0.5" />
  <path d="M 150 150 L 3.109895893743783 180.38580779991227 A 150 150 0 0 1 21.40196476565339 72.78248039553621 Z" fill="#363636" stroke="#333" stroke-width="0.5" />
  <path d="M 150 150 L 21.40196476565339 72.78248039553621 A 150 150 0 0 1 67.10660893753946 24.9852579966427 Z" fill="#F7DF1E" stroke="#333" stroke-width="0.5" />
  <path d="M 150 150 L 67.10660893753946 24.9852579966427 A 150 150 0 0 1 92.15576350658336 11.601863074340173 Z" fill="#E34F26" stroke="#333" stroke-width="0.5" />
  <path d="M 150 150 L 92.15576350658336 11.601863074340173 A 150 150 0 0 1 109.21147242956297 5.652170024500549 Z" fill="#58A6FF" stroke="#333" stroke-width="0.5" />
  <path d="M 150 150 L 109.21147242956297 5.652170024500549 A 150 150 0 0 1 119.32100157521855 3.1708507970836877 Z" fill="#5D4F85" stroke="#333" stroke-width="0.5" />
  <path d="M 150 150 L 119.32100157521855 3.1708507970836877 A 150 150 0 0 1 149.99999999999997 0 Z" fill="#808080" stroke="#333" stroke-width="0.5" />
  <text x="253.7314857168813" y="133.7279727455841" text-anchor="middle" dominant-baseline="middle" fill="#FFFFFF" font-weight="bold" font-family="monospace">45%</text>
  <text x="97.11775469254536" y="240.71090414741874" text-anchor="middle" dominant-baseline="middle" fill="#FFFFFF" font-weight="bold" font-family="monospace">27%</text>
  <text x="46.485057137795366" y="132.40293762486166" text-anchor="middle" dominant-baseline="middle" fill="#FFFFFF" font-weight="bold" font-family="monospace">12%</text>
  <text x="74.11115537446813" y="77.43359412647006" text-anchor="middle" dominant-baseline="middle" fill="#000000" font-weight="bold" font-family="monospace">7%</text>
  <text x="100.51961099547984" y="57.389573459780664" text-anchor="middle" dominant-baseline="middle" fill="#FFFFFF" font-weight="bold" font-family="monospace">3%</text>
  <text x="139.20515091384655" y="45.55637294115465" text-anchor="middle" dominant-baseline="middle" fill="#FFFFFF" font-weight="bold" font-family="monospace">3%</text>
</svg>
    </g>

    <!-- Legend -->
    <g transform="translate(400, 299.5)">
        <rect x="0" y="0" width="20" height="20" fill="#3776AB" stroke="#333" stroke-width="1" />
        <text x="30" y="16" class="white">Python          45.0%</text>
        <rect x="0" y="35" width="20" height="20" fill="#3178C6" stroke="#333" stroke-width="1" />
        <text x="30" y="51" class="white">TypeScript      26.7%</text>
        <rect x="0" y="70" width="20" height="20" fill="#363636" stroke="#333" stroke-width="1" />
        <text x="30" y="86" class="white">Solidity        11.9%</text>
        <rect x="0" y="105" width="20" height="20" fill="#F7DF1E" stroke="#333" stroke-width="1" />
        <text x="30" y="121" class="white">JavaScript      7.1%</text>
        <rect x="0" y="140" width="20" height="20" fill="#E34F26" stroke="#333" stroke-width="1" />
        <text x="30" y="156" class="white">HTML            3.0%</text>
        <rect x="0" y="175" width="20" height="20" fill="#58A6FF" stroke="#333" stroke-width="1" />
        <text x="30" y="191" class="white">Circom          1.9%</text>
        <rect x="0" y="210" width="20" height="20" fill="#5D4F85" stroke="#333" stroke-width="1" />
        <text x="30" y="226" class="white">Haskell         1.1%</text>
        <rect x="0" y="245" width="20" height="20" fill="#808080" stroke="#333" stroke-width="1" />
        <text x="30" y="261" class="white">Others          3.3%</text>
    </g>
</svg>